<?xml version="1.0" encoding="utf-8"?>
<!-- Generated by IcoMoon.io -->
<!DOCTYPE svg PUBLIC "-//W3C//DTD SVG 1.1//EN" "http://www.w3.org/Graphics/SVG/1.1/DTD/svg11.dtd">
<svg version="1.1" xmlns="http://www.w3.org/2000/svg" xmlns:xlink="http://www.w3.org/1999/xlink" width="100%" height="100%" viewBox="0 0 512 512" preserveAspectRatio="xMidYMid meet">
<g id="icomoon-ignore">
</g>
<path fill="#333333" d="M448 128h-96v-64c0-17.6-14.4-32-32-32h-128c-17.6 0-32 14.4-32 32v64h-96c-35.2 0-64 28.8-64 64v256c0 35.2 28.8 64 64 64h384c35.2 0 64-28.8 64-64v-256c0-35.2-28.8-64-64-64zM192 64h128v64h-128v-64zM384 352h-96v96h-64v-96h-96v-64h96v-96h64v96h96v64z"></path>
</svg>
