<svg xmlns="http://www.w3.org/2000/svg" width="512" height="512" viewBox="0 0 512 512"><path fill="#333" d="M432.313 236.58C399.436 144.86 329.758 62.507 256 0 182.242 62.506 112.565 144.86 79.687 236.58c-20.332 56.72-22.34 118.282 6.292 172.7C118.9 471.85 185.294 512 256 512s137.098-40.15 170.02-102.72c28.635-54.42 26.625-115.98 6.293-172.7zm-62.93 142.898C347.48 421.104 302.975 448 256 448c-27.56 0-54.262-9.268-76.056-25.326 6.62.862 13.316 1.326 20.056 1.326 58.713 0 114.334-33.607 141.7-85.62 22.44-42.647 20.49-86.925 11.942-122.17 7.28 14.075 13.453 28.1 18.424 41.966 11.303 31.53 20.012 78.17-2.684 121.302z"/></svg>