<?xml version="1.0" encoding="utf-8"?>
<!-- Generated by IcoMoon.io -->
<!DOCTYPE svg PUBLIC "-//W3C//DTD SVG 1.1//EN" "http://www.w3.org/Graphics/SVG/1.1/DTD/svg11.dtd">
<svg version="1.1" xmlns="http://www.w3.org/2000/svg" xmlns:xlink="http://www.w3.org/1999/xlink" width="100%" height="100%" viewBox="0 0 1189 1024" preserveAspectRatio="xMidYMid meet">
<g id="icomoon-ignore">
</g>
<style>
  path {
    fill: #333333;
  }
</style>
<path d="M722.685 795.318l-125.154-114.421-120.426 110.126-248.223-428.989 311.114-24.924 60.122 99.035 59.649-100.593 310.93 31.065-248.010 428.704zM613.143 666.622l104.43 95.466 218.542-377.748-265.069-26.482-58.534 98.701 82.232 135.446-81.6 74.618zM263.836 380.366l218.383 377.399 99.701-91.16-76.824-70.237 82.849-139.703-59.219-97.522-264.897 21.219zM531.951 592.398l65.568 59.945 70.225-64.22-67.415-111.041-68.38 115.313z"></path>
<path d="M108.063 473.768l49.054-20.28 0.411-7.862-72.625-36.028-1.028 19.338 39.652 19.299-41.537 16.728-0.768 14.708 39.571 20.96-41.463 15.166-1.015 19.388 76.016-28.378 0.411-7.839z"></path>
<path d="M96.837 383.713l4.435-17.765 71.27 17.783-4.435 17.765-71.27-17.783z"></path>
<path d="M145.18 263.84l-8.033 16.468 40.359 19.683-57.532 15.55-7.381 15.092 66.015 32.177 8.033-16.441-42.304-20.628 60.096-15.86 6.758-13.844z"></path>
<path d="M185.010 227.443l7.045-9.362c10.452-13.855 23.041-12.836 33.108-5.261 8.594 6.463 15.264 18.388 4.186 33.093l-7.181 9.545-37.152-28.017zM163.23 233.968l58.649 44.224 18.284-24.266c17.632-23.411 13.274-43.408-3.578-56.072-16.085-12.131-37.713-11.168-53.845 10.226l-19.512 25.888z"></path>
<path d="M299.926 138.846c8.999 9.991 8.096 22.855-2.228 32.116-10.39 9.409-23.264 8.951-32.278-1.077-8.99-10.005-8.107-22.843 2.303-32.225 10.336-9.258 23.2-8.813 32.201 1.186zM313.941 126.229c-11.821-13.123-35.877-18.422-56.442 0.109-20.566 18.484-17.941 42.974-6.066 56.16 12.554 13.926 36.512 17.865 56.517-0.151 19.601-17.682 18.608-42.133 5.991-56.121z"></path>
<path d="M377.539 78.661l41.525 33.080 7.072-3.489-3.688-80.992-17.42 8.518 2.315 44.053-34.74-28.255-13.247 6.463 0.842 44.781-33.367-28.907-17.434 8.505 61.658 52.728 7.072-3.454z"></path>
<path d="M527.95 52.057l-22.334 3.552 6.168-29.86 16.167 26.308zM519.248 6.793l-20.95 3.318-17.778 77.18 19.155-3.035 3.159-15.201 32.437-5.176 8.245 13.419 19.45-3.071-43.715-67.437z"></path>
<path d="M628.892 7.525c-9.026-4.435-16.33-6.56-24.528-6.983-16.988-0.864-28.387 6.921-29.072 19.621-1.399 26.335 36.164 23.882 35.533 35.919-0.224 4.331-4.11 6.572-11.104 6.215-8.087-0.411-14.398-3.242-24.575-10.759l-0.83 15.783c7.121 4.16 13.309 7.813 26.11 8.518 16.305 0.842 28.6-6.696 29.305-20.8 1.364-25.603-36.128-24.425-35.533-35.493 0.171-3.679 4.495-5.831 11.069-5.483 6.24 0.322 12.506 2.501 22.89 7.813l0.732-14.349z"></path>
<path d="M702.905 17.292c-8.532-5.4-15.611-8.27-23.698-9.545-16.775-2.652-28.96 3.899-30.928 16.468-4.133 26.048 33.45 27.557 31.558 39.456-0.67 4.297-4.776 6.114-11.685 5.016-7.971-1.26-13.953-4.704-23.3-13.309l-2.464 15.686c6.624 4.853 12.382 9.149 25.048 11.157 16.181 2.563 29.146-3.679 31.348-17.605 3.988-25.331-33.376-28.079-31.635-39.048 0.555-3.605 5.088-5.276 11.576-4.257 6.14 0.992 12.131 3.776 21.938 10.115l2.241-14.124z"></path>
<path d="M782.424 75.905c-4.618 12.651-16.345 17.88-29.428 13.138-13.138-4.791-18.791-16.345-14.186-29.022 4.578-12.604 16.352-17.88 29.503-13.088 13.076 4.768 18.729 16.345 14.112 28.968zM800.128 82.368c6.044-16.591-0.534-40.337-26.569-49.808-26.001-9.458-46.356 4.346-52.419 21.032-6.413 17.605 1.349 40.608 26.656 49.808 24.773 9.038 45.894-3.365 52.33-21.032z"></path>
<path d="M873.064 142.039c-11.65-1.090-18.744-1.858-26.953-6.749-13.123-7.9-17.62-21.517-10.848-32.807 6.71-11.142 20.889-13.445 34.272-5.421 7.785 4.695 13.235 11.488 17.841 19.512l8.409-14.027c-3.948-7.402-10.697-13.966-19.476-19.229-24.082-14.508-47.246-7.059-57.374 9.718-9.758 16.268-7.094 39.467 17.371 54.167 9.312 5.586 16.997 7.847 28.502 8.579l8.258-13.74z"></path>
<path d="M924.605 120.611l13.603 12.238-49.12 54.606-13.603-12.238 49.12-54.606z"></path>
<path d="M953.548 214.813l-15.154-16.763 28.413-11.095-13.259 27.859zM986.78 182.883l-14.2-15.762-74.396 27.125 12.987 14.398 14.496-5.646 21.964 24.425-6.797 14.2 13.212 14.659 32.736-73.404z"></path>
<path d="M1050.479 276.074l-36.832-61.296-11.527 6.936 13.681 22.792-51.379 30.902 9.409 15.686 51.406-30.902 13.728 22.816z"></path>
<path d="M1058.972 293.939l8.053 16.458-65.976 32.285-8.053-16.458 65.976-32.285z"></path>
<path d="M1061.246 413.672c-13.097 3.283-23.994-3.563-27.336-17.050-3.365-13.596 3.044-24.736 16.12-27.98 13.024-3.283 23.958 3.563 27.351 17.16 3.343 13.495-3.082 24.611-16.132 27.87zM1065.782 431.97c17.173-4.284 33.129-23.028 26.444-49.872-6.696-26.844-29.538-36.040-46.752-31.731-18.201 4.508-32.882 23.87-26.42 49.953 6.413 25.63 28.463 36.191 46.724 31.647z"></path>
<path d="M1110.684 528.182l-0.966-18.272-44.832 2.337 42.8-41.448-0.877-16.8-73.357 3.865 0.966 18.237 46.984-2.439-44.855 43.025 0.779 15.379z"></path>
<path d="M166.587 712.69c-12.64 4.618-24.205-1.062-28.968-14.104-4.768-13.15 0.445-24.933 13.097-29.553 12.651-4.571 24.227 1.062 29.022 14.213 4.742 13.076-0.494 24.823-13.15 29.441zM173.036 730.379c16.591-6.017 30.518-26.359 21.059-52.33-9.471-26.048-33.129-32.786-49.83-26.693-17.605 6.389-30.209 27.153-21.012 52.447 9.026 24.8 32.080 33.046 49.783 26.583z"></path>
<path d="M244.598 773.986l-26.076-43.381-62.944 37.822 9.422 15.736 25.85-15.55 16.639 27.695 11.541-6.944-16.639-27.681 14.027-8.417 16.639 27.681z"></path>
<path d="M330.901 860.602l-13.604-12.256-30.048 33.341 0.918-59.575-12.48-11.267-49.138 54.624 13.604 12.256 31.484-34.985-1.322 62.138 11.44 10.274z"></path>
<path d="M362.337 950.793l-30.743-18.45 9.1-15.166 28.709 17.271 6.936-11.541-28.709-17.256 7.924-13.212 30.111 18.086 6.908-11.527-45.772-27.523-37.835 62.967 46.437 27.879z"></path>
<path d="M449.345 952.006l5.078 52.83 7.366 2.713 55.725-58.909-18.237-6.649-30.058 32.264-3.826-44.594-13.855-5.025-31.593 31.696-2.412-44.073-18.21-6.649 4.901 80.983 7.392 2.713z"></path>
<path d="M624.335 950.941l-68.388-3.552-0.718 13.419 37.562 1.954-43.483 57.793 71.191 3.75 0.694-13.445-40.016-2.132z"></path>
<path d="M701.877 997.778l-35.423 5.633-2.748-17.456 33.046-5.276-2.090-13.247-33.067 5.249-2.426-15.241 34.664-5.51-2.080-13.274-52.777 8.369 11.499 72.513 53.509-8.492z"></path>
<path d="M766.156 963.531l-21.257 7.738 0.383-30.496 20.874 22.754zM748.985 920.76l-19.923 7.257-2.713 79.127 18.201-6.649 0.185-15.524 30.867-11.218 10.672 11.616 18.47-6.749-55.765-57.855z"></path>
<path d="M868.754 926.763l-32.314 19.388-30.888-51.406-15.686 9.436 37.811 62.967 48.014-28.885z"></path>
<path d="M913.128 874.096l-16.763 15.139-11.142-28.364 27.906 13.221zM881.185 840.866l-15.775 14.2 27.153 74.405 14.364-12.987-5.633-14.487 24.425-21.951 14.186 6.772 14.673-13.198-73.392-32.759z"></path>
<path d="M959.022 752.123l-11.018 14.659 35.857 27.014-59.464 4.297-10.103 13.372 58.635 44.238 11.056-14.632-37.59-28.317 61.988-4.11 9.273-12.282z"></path>
<path d="M988.985 725.603l5.14-10.526c7.602-15.6 20.182-17.024 31.511-11.514 9.656 4.742 18.484 15.166 10.4 31.682l-5.223 10.759-41.823-20.404zM968.864 736.19l66.015 32.163 13.297-27.274c12.863-26.335 4.768-45.141-14.2-54.388-18.101-8.854-39.146-3.75-50.885 20.368l-14.227 29.132z"></path>
</svg>
