<svg xmlns="http://www.w3.org/2000/svg" width="1189" height="1024" viewBox="0 0 1189 1024"><style>path { fill: #333333; }</style><path d="M722.685 795.318L597.53 680.898 477.106 791.022l-248.223-428.99 311.114-24.923 60.122 99.035 59.65-100.593 310.93 31.065-248.01 428.704zM613.143 666.622l104.43 95.466L936.115 384.34l-265.07-26.482-58.533 98.7 82.232 135.447-81.6 74.618zM263.836 380.366l218.383 377.4 99.7-91.16-76.824-70.238 82.85-139.703-59.22-97.522-264.897 21.22zM531.95 592.398l65.57 59.945 70.224-64.22-67.415-111.04-68.38 115.312zM108.063 473.768l49.054-20.28.41-7.862-72.624-36.028-1.028 19.338 39.652 19.3-41.537 16.727-.768 14.708 39.57 20.96-41.462 15.167-1.015 19.388 76.016-28.378.412-7.84zM96.837 383.713l4.435-17.765 71.27 17.783-4.435 17.766-71.27-17.783zM145.18 263.84l-8.033 16.468 40.36 19.683-57.533 15.55-7.38 15.093 66.014 32.177 8.033-16.44-42.303-20.63 60.096-15.86 6.758-13.843zM185.01 227.443l7.045-9.362c10.452-13.854 23.04-12.835 33.108-5.26 8.594 6.463 15.264 18.388 4.186 33.093l-7.182 9.545-37.152-28.017zm-21.78 6.525l58.65 44.224 18.283-24.266c17.632-23.41 13.274-43.408-3.578-56.072-16.085-12.13-37.713-11.168-53.845 10.226l-19.512 25.888zM299.926 138.846c9 9.99 8.096 22.855-2.228 32.116-10.39 9.41-23.264 8.95-32.278-1.077-8.99-10.005-8.107-22.843 2.303-32.225 10.336-9.258 23.2-8.813 32.2 1.186zm14.015-12.617c-11.82-13.124-35.876-18.423-56.44.108-20.567 18.484-17.942 42.974-6.067 56.16 12.554 13.926 36.512 17.865 56.517-.15 19.6-17.683 18.608-42.134 5.99-56.122zM377.54 78.66l41.524 33.08 7.072-3.488-3.688-80.992-17.42 8.518 2.315 44.053-34.74-28.254-13.247 6.463.842 44.78-33.367-28.907-17.433 8.505 61.658 52.728 7.072-3.454zM527.95 52.057l-22.334 3.552 6.168-29.86 16.167 26.307zm-8.702-45.264l-20.95 3.318-17.778 77.18 19.155-3.034 3.16-15.2 32.436-5.177 8.246 13.418 19.45-3.07L519.25 6.79zM628.892 7.525c-9.026-4.435-16.33-6.56-24.528-6.983-16.988-.864-28.387 6.92-29.072 19.62-1.4 26.336 36.164 23.883 35.533 35.92-.224 4.33-4.11 6.572-11.104 6.215-8.086-.41-14.397-3.242-24.574-10.76l-.83 15.784c7.12 4.16 13.31 7.814 26.11 8.52 16.305.84 28.6-6.697 29.305-20.8 1.365-25.604-36.127-24.426-35.532-35.494.17-3.68 4.495-5.83 11.07-5.483 6.24.322 12.505 2.5 22.89 7.813l.73-14.35zM702.905 17.292c-8.532-5.4-15.61-8.27-23.698-9.545-16.775-2.652-28.96 3.9-30.928 16.468-4.134 26.048 33.45 27.557 31.557 39.456-.67 4.298-4.776 6.115-11.685 5.017-7.97-1.26-13.953-4.704-23.3-13.31l-2.464 15.687c6.624 4.853 12.382 9.15 25.048 11.157 16.18 2.564 29.146-3.678 31.348-17.604 3.988-25.33-33.376-28.08-31.635-39.048.554-3.605 5.087-5.276 11.575-4.257 6.14.993 12.13 3.777 21.938 10.116l2.24-14.124zM782.424 75.905c-4.618 12.65-16.345 17.88-29.428 13.138-13.138-4.79-18.79-16.345-14.186-29.022 4.578-12.603 16.352-17.88 29.503-13.087 13.076 4.768 18.73 16.345 14.112 28.968zm17.704 6.463c6.044-16.59-.534-40.337-26.57-49.808-26-9.458-46.355 4.346-52.418 21.032-6.413 17.605 1.35 40.608 26.656 49.808 24.773 9.038 45.894-3.365 52.33-21.032zM873.064 142.04c-11.65-1.09-18.744-1.86-26.953-6.75-13.122-7.9-17.62-21.517-10.847-32.807 6.71-11.142 20.89-13.445 34.272-5.42 7.785 4.694 13.235 11.487 17.84 19.51l8.41-14.026c-3.948-7.402-10.697-13.966-19.476-19.23-24.083-14.507-47.247-7.058-57.375 9.72-9.758 16.267-7.094 39.466 17.37 54.166 9.313 5.586 16.998 7.847 28.503 8.58l8.258-13.74zM924.605 120.61l13.603 12.24-49.12 54.605-13.603-12.238 49.12-54.606zM953.548 214.813l-15.154-16.763 28.413-11.095-13.26 27.86zm33.232-31.93l-14.2-15.762-74.396 27.126 12.987 14.398 14.497-5.646 21.964 24.425-6.796 14.2 13.212 14.66 32.736-73.405zM1050.48 276.074l-36.833-61.296-11.527 6.936 13.68 22.792-51.378 30.902 9.41 15.686 51.405-30.902 13.728 22.816zM1058.972 293.94l8.053 16.457-65.976 32.285-8.054-16.458 65.976-32.285zM1061.246 413.672c-13.097 3.283-23.994-3.563-27.336-17.05-3.365-13.596 3.044-24.736 16.12-27.98 13.024-3.283 23.958 3.563 27.35 17.16 3.344 13.495-3.08 24.61-16.13 27.87zm4.536 18.298c17.173-4.284 33.13-23.028 26.444-49.872-6.696-26.844-29.538-36.04-46.752-31.73-18.2 4.507-32.882 23.87-26.42 49.952 6.413 25.63 28.463 36.19 46.724 31.647zM1110.684 528.182l-.966-18.272-44.832 2.337 42.8-41.448-.877-16.8-73.358 3.864.966 18.237 46.984-2.438-44.855 43.025.78 15.38zM166.587 712.69c-12.64 4.618-24.205-1.062-28.968-14.104-4.77-13.15.444-24.933 13.096-29.553 12.65-4.57 24.227 1.062 29.022 14.213 4.742 13.076-.494 24.823-13.15 29.44zm6.45 17.69c16.59-6.018 30.517-26.36 21.058-52.33-9.47-26.05-33.13-32.787-49.83-26.694-17.605 6.39-30.21 27.153-21.012 52.447 9.026 24.8 32.08 33.046 49.783 26.583zM244.598 773.986l-26.076-43.38-62.944 37.82L165 784.164l25.85-15.55 16.64 27.695 11.54-6.944-16.64-27.68 14.028-8.418 16.64 27.68zM330.9 860.602l-13.603-12.256-30.048 33.34.917-59.574-12.48-11.267-49.138 54.624 13.603 12.255 31.484-34.985-1.322 62.138 11.44 10.274zM362.337 950.793l-30.743-18.45 9.1-15.166 28.71 17.27 6.935-11.54-28.71-17.256 7.924-13.21 30.11 18.085 6.91-11.527-45.773-27.523-37.834 62.967 46.437 27.88zM449.345 952.006l5.078 52.83 7.366 2.713 55.724-58.91-18.237-6.65-30.058 32.265-3.827-44.594-13.855-5.024-31.593 31.696-2.412-44.073-18.21-6.65 4.9 80.983 7.393 2.713zM624.335 950.94l-68.388-3.55-.718 13.418 37.56 1.954-43.482 57.793 71.19 3.75.695-13.445-40.016-2.132zM701.877 997.778l-35.423 5.633-2.748-17.455 33.046-5.276-2.09-13.248-33.067 5.25-2.426-15.242 34.663-5.51-2.08-13.274-52.777 8.37 11.5 72.512 53.508-8.492zM766.156 963.53l-21.257 7.74.382-30.497 20.874 22.754zm-17.17-42.77l-19.924 7.257-2.713 79.127 18.2-6.65.185-15.523 30.867-11.217 10.672 11.616 18.47-6.75-55.765-57.855zM868.754 926.763L836.44 946.15l-30.888-51.405-15.686 9.436 37.81 62.968 48.015-28.885zM913.128 874.096l-16.763 15.14-11.142-28.365 27.906 13.222zm-31.943-33.23l-15.775 14.2 27.153 74.405 14.364-12.986-5.633-14.487 24.425-21.95 14.185 6.77 14.673-13.197-73.392-32.76zM959.022 752.123l-11.018 14.66 35.857 27.013-59.463 4.297-10.103 13.372 58.635 44.238 11.055-14.632-37.59-28.316 61.988-4.11 9.273-12.282zM988.985 725.603l5.14-10.526c7.602-15.6 20.182-17.024 31.51-11.514 9.657 4.742 18.485 15.166 10.4 31.682l-5.222 10.76L988.99 725.6zm-20.12 10.587l66.014 32.163 13.296-27.274c12.863-26.336 4.768-45.142-14.2-54.39-18.1-8.853-39.146-3.75-50.885 20.37l-14.226 29.13z"/></svg>