<svg xmlns="http://www.w3.org/2000/svg" width="512" height="512" viewBox="0 0 512 512"><path fill="#333" d="M501.467 408.938L271.19 211.558C281.916 191.408 288 168.418 288 144 288 64.47 223.53 0 144 0c-14.547 0-28.586 2.166-41.823 6.177l83.195 83.195c12.445 12.445 12.445 32.81 0 45.255l-50.745 50.745c-12.445 12.445-32.81 12.445-45.255 0L6.177 102.177C2.167 115.414 0 129.453 0 144c0 79.53 64.47 144 144 144 24.417 0 47.41-6.085 67.558-16.81l197.38 230.276c11.454 13.362 31.008 14.113 43.452 1.67l50.746-50.747c12.444-12.445 11.693-31.998-1.67-43.452z"/></svg>